<svg xmlns="http://www.w3.org/2000/svg" id="Capa_1" data-name="Capa 1" viewBox="0 0 861.85 86.61"><defs><style>      .cls-1 {        fill: #fbf8f3;        stroke-width: 0px;      }    </style></defs><g><path class="cls-1" d="M62.81,34.94c1.66.12,3.78.24,6.26.24,2.25,0,4.25,0,6.02-.12l.24-.47-6.14-15.12-6.62,15.12c.12.24.12.35.24.35M76.75,55.49c1.18,0,2.48-.24,3.78-.83,1.3-.59,1.89-1.3,1.89-2.13,0-.12-.71-2-2.12-5.67l-2.48-6.14c-.24-.24-.47-.35-.59-.35-1.06,0-3.78-.12-8.15-.12-3.78,0-6.62,0-8.51.12-.24,0-.47.12-.59.47l-2.83,6.38c-1.18,2.48-1.66,4.26-1.66,5.2s.47,1.66,1.54,2.13c1.06.47,1.89.83,2.71.95.71.12,1.42.12,2.01.12.12,0,.24.47.24,1.3s0,1.42-.12,1.77c-.71,0-2.25-.24-4.49-.35-2.25-.24-4.02-.35-5.44-.35s-3.07.12-5.08.35c-2.01.24-3.55.35-4.61.35-.24-.24-.35-.59-.35-1.3,0-1.18,0-1.77.12-1.77.7,0,1.77-.35,3.42-.95,1.54-.59,2.6-1.18,2.96-1.77.47-.71.95-1.53,1.42-2.48.47-.95.82-1.77,1.18-2.36l.47-1.06L70.13,3.98c.59-1.42,1.66-2.25,3.07-2.25.83,0,1.54.35,2.01,1.06l17.37,42.89c1.06,2.6,2.01,4.97,2.84,6.97.35.95,1.29,1.66,2.83,2.13,1.54.47,2.72.71,3.43.71.24,0,.35.47.35,1.42s0,1.54-.12,1.66c-.24,0-2.01-.12-5.2-.35-3.19-.24-5.55-.35-7.09-.35-.35,0-4.61.24-12.76.71-.24-.24-.35-.83-.35-1.77-.12-.83,0-1.3.24-1.3"></path><path class="cls-1" d="M122.47,13.9v32.85c0,3.67.24,5.67.71,5.91,1.18.71,4.38,1.06,9.57,1.06,4.72,0,8.39-2,10.98-6.14,2.6-4.01,3.9-10.16,3.9-18.2,0-6.26-1.42-11.46-4.14-15.83-2.71-4.38-6.5-6.5-11.34-6.5h-.35c-4.84,0-7.56.47-8.15,1.3-.83,1.3-1.18,3.07-1.18,5.55M116.8,2.56h14.77c9.22,0,16.42,2.72,21.62,8.15,5.2,5.43,7.8,11.81,7.8,19.14,0,8.15-2.6,14.89-7.92,20.44-5.2,5.55-12.4,8.27-21.62,8.27-1.06,0-3.3-.12-6.62-.24-3.31-.12-6.02-.24-7.92-.24l-12.4.47c-.24-.24-.35-.71-.35-1.42,0-1.18.12-1.66.35-1.66.71,0,1.77-.24,3.19-.59,1.42-.35,2.25-.83,2.36-1.3.35-1.3.47-3.78.47-7.44V14.14c0-3.07-.12-5.31-.47-6.62-.12-.47-.95-.95-2.48-1.53-1.54-.59-2.6-.83-3.19-.83-.24,0-.35-.47-.35-1.54,0-.95.12-1.42.24-1.66,4.61.35,8.74.59,12.52.59"></path><path class="cls-1" d="M191.12,6.58c-2.96,0-5.44,1.06-7.44,3.3-2.01,2.13-3.31,4.85-4.14,8.03-.71,3.19-1.18,6.73-1.18,10.87,0,2.84.24,5.67.83,8.51.59,2.83,1.3,5.55,2.48,8.15,1.18,2.6,2.72,4.84,4.72,6.5,2.13,1.66,4.49,2.48,7.33,2.48,4.26,0,7.44-2.13,9.57-6.39,2.13-4.25,3.19-9.57,3.19-15.83,0-3.07-.24-6.02-.71-8.86-.47-2.84-1.3-5.56-2.36-8.15-1.06-2.6-2.6-4.73-4.72-6.26-2.13-1.54-4.61-2.36-7.56-2.36M173.28,50.77c-5.31-5.55-8.03-12.29-8.03-20.2s2.72-14.65,8.03-20.33c5.31-5.67,11.69-8.39,19.14-8.39s13.83,2.84,19.26,8.39c5.31,5.68,8.03,12.41,8.03,20.33s-2.72,14.65-8.03,20.2c-5.31,5.55-11.82,8.39-19.26,8.39s-13.82-2.84-19.14-8.39"></path><path class="cls-1" d="M224.55,16.86c0-4.25,1.89-7.8,5.67-10.87,3.78-2.95,7.92-4.49,12.41-4.49,1.18,0,2.36.12,3.66.24,1.3.12,2.36.35,3.19.47.83.12,2.12.47,3.66.83,1.54.35,2.84.59,3.67.83.59,5.43.95,10.16.95,14.06-.24.59-.59.83-1.3.83-1.66,0-2.48-.24-2.6-.59-.35-2.84-1.66-5.55-3.66-8.03-2.01-2.6-4.49-3.9-7.56-3.9-1.89,0-3.55.59-4.85,1.77-1.3,1.18-2,3.07-2,5.67,0,1.18.23,2.25.82,3.31.59,1.06,1.54,2.13,2.84,3.31,1.3,1.18,2.36,2,3.31,2.48.82.59,2.24,1.42,4.13,2.72.47.35.95.59,1.18.71.47.24,1.42.83,2.84,1.66,1.41.82,2.36,1.53,2.95,1.89.59.47,1.42,1.06,2.48,2.13,1.06.95,1.77,1.89,2.25,2.84.47.95.94,2.12,1.29,3.66.35,1.54.59,3.19.59,4.97,0,4.49-1.89,8.26-5.55,11.22-3.78,2.96-8.03,4.49-12.88,4.49-4.49,0-9.81-.7-16.07-2.24-.47-1.77-.95-4.26-1.3-7.44-.47-3.19-.59-5.32-.59-6.62.12-.59.71-.83,1.54-.83,1.77,0,2.6.12,2.71.47.47,2.6,1.89,5.2,4.26,7.8,2.36,2.6,4.96,3.9,7.92,3.9,5.55,0,8.39-3.07,8.39-9.22,0-.95-.24-1.89-.71-2.83-.47-.95-1.3-1.89-2.25-2.72-1.06-.95-1.89-1.66-2.71-2.25-.83-.59-1.89-1.29-3.31-2.24-1.42-.95-2.36-1.54-2.72-1.77-.24-.12-.71-.47-1.3-.83-1.89-1.18-3.3-2.25-4.25-2.96-.95-.71-2.13-1.77-3.31-3.07-1.29-1.3-2.12-2.72-2.71-4.26-.71-1.29-1.06-3.07-1.06-5.08"></path><path class="cls-1" d="M5.97,16.86c0-4.25,1.89-7.8,5.67-10.87,3.78-2.95,7.92-4.49,12.41-4.49,1.18,0,2.36.12,3.66.24,1.3.12,2.36.35,3.19.47.83.12,2.12.47,3.66.83,1.54.35,2.84.59,3.67.83.59,5.43.95,10.16.95,14.06-.24.59-.59.83-1.3.83-1.66,0-2.48-.24-2.6-.59-.35-2.84-1.66-5.55-3.66-8.03-2.01-2.6-4.49-3.9-7.56-3.9-1.89,0-3.55.59-4.85,1.77-1.3,1.18-2,3.07-2,5.67,0,1.18.23,2.25.82,3.31.59,1.06,1.54,2.13,2.84,3.31,1.3,1.18,2.36,2,3.31,2.48.82.59,2.24,1.42,4.13,2.72.47.35.95.59,1.18.71.47.24,1.42.83,2.84,1.66,1.41.82,2.36,1.53,2.95,1.89.59.47,1.42,1.06,2.48,2.13,1.06.95,1.77,1.89,2.25,2.84.47.95.94,2.12,1.29,3.66.35,1.54.59,3.19.59,4.97,0,4.49-1.89,8.26-5.55,11.22-3.78,2.96-8.03,4.49-12.88,4.49-4.49,0-9.81-.7-16.07-2.24-.47-1.77-.95-4.26-1.3-7.44-.47-3.19-.59-5.32-.59-6.62.12-.59.71-.83,1.54-.83,1.77,0,2.6.12,2.71.47.47,2.6,1.89,5.2,4.26,7.8,2.36,2.6,4.96,3.9,7.92,3.9,5.55,0,8.39-3.07,8.39-9.22,0-.95-.24-1.89-.71-2.83s-1.3-1.89-2.25-2.72c-1.06-.95-1.89-1.66-2.71-2.25-.83-.59-1.89-1.29-3.31-2.24-1.42-.95-2.36-1.54-2.72-1.77-.24-.12-.71-.47-1.3-.83-1.89-1.18-3.3-2.25-4.25-2.96-.95-.71-2.13-1.77-3.31-3.07-1.29-1.3-2.12-2.72-2.71-4.26-.71-1.29-1.06-3.07-1.06-5.08"></path><path class="cls-1" d="M277.6,2.8c1.18,0,5.08-.12,11.81-.47.12.47.24,1.06.24,1.54,0,1.06-.12,1.66-.35,1.66-.47,0-1.53.24-3.07.71-1.54.47-2.36.94-2.48,1.29-.35,1.54-.59,3.9-.59,7.21v13.36c0,.24,0,.35.12.47.12.12.24.12.35.12h.71c.35,0,1.66-1.06,3.78-3.19,4.84-4.96,10.04-10.52,15.36-16.78.47-.59.7-1.18.7-1.89,0-.59-.59-.94-1.89-1.18-1.3-.24-2.36-.35-3.19-.35-.24,0-.35-.35-.47-1.18-.12-.83-.12-1.42,0-1.77,6.26.35,10.04.47,11.35.47.71,0,4.37-.12,11.22-.47.12.24.12.83.12,1.66s-.12,1.3-.35,1.3l-.47.12h-.95c-.35,0-.7.12-1.18.12-.47.12-.95.12-1.42.24s-.95.24-1.54.47c-.59.24-1.06.35-1.54.59s-.95.47-1.42.83c-.47.35-.94.71-1.18,1.06l-14.54,16.07c-.7.83-.7,1.66-.12,2.48l20.09,26.11c.59.71,1.54,1.3,2.95,1.66,1.3.35,2.36.47,2.96.47.24,0,.35.59.35,1.66,0,.59-.12,1.06-.35,1.54,0,0-1.89-.12-5.31-.35-3.55-.24-6.02-.35-7.44-.35-3.07,0-7.09.24-12.05.71-.24-.24-.35-.83-.35-1.77s.12-1.42.35-1.42c.59,0,1.42-.12,2.48-.47,1.06-.35,1.54-.71,1.54-1.18,0-1.77-4.97-8.39-15.12-19.73-.12-.12-.59-.24-1.18-.24-1.42,0-2.25.47-2.25,1.42v10.63c0,3.19.24,5.68.71,7.44.12.35.95.83,2.36,1.3,1.42.47,2.36.71,2.95.71.24,0,.35.59.35,1.66,0,.71,0,1.18-.12,1.54-.35,0-2.12-.12-5.08-.35-2.96-.24-5.2-.35-6.73-.35s-3.78.12-6.73.35c-2.96.24-4.84.35-5.55.35-.24-.24-.35-.71-.35-1.3,0-1.18.12-1.77.24-1.77.59,0,1.65-.24,3.19-.71,1.42-.47,2.25-.95,2.48-1.42.35-1.53.59-3.78.59-6.73V14.14c0-3.66-.24-5.79-.71-6.62-.24-.47-1.06-.95-2.36-1.41-1.3-.47-2.24-.71-2.83-.71-.24,0-.35-.47-.35-1.42,0-1.06,0-1.54.12-1.66,7.68.24,11.81.47,12.17.47"></path><path class="cls-1" d="M340.58,2.8c1.3,0,5.31-.12,12.05-.47.12.24.12.83.12,1.77s-.12,1.42-.35,1.42c-.82,0-1.77.12-2.83.47-1.06.35-1.66.7-1.66,1.29,0,.47.24,1.06.71,1.89l8.51,15c.24.24.59.24.83-.12,1.66-2.36,3.54-5.55,5.79-9.45,2.25-3.9,3.42-6.26,3.42-7.21,0-1.18-1.77-1.89-5.43-1.89-.24,0-.35-.47-.35-1.42s.12-1.54.35-1.77c5.08.35,8.51.47,10.28.47,1.42,0,4.61-.12,9.57-.47.12.47.24,1.06.24,1.54,0,1.06-.12,1.54-.35,1.54-1.06,0-2.13.24-3.43.71-1.3.47-2.36,1.29-3.07,2.24-1.41,2.01-4.25,6.26-8.5,13-4.26,6.73-6.27,10.39-6.27,11.22v13.47c0,3.19.24,5.68.71,7.33.12.35.95.83,2.36,1.3,1.42.47,2.36.71,2.96.71.24,0,.35.59.35,1.66,0,.71,0,1.18-.12,1.54-.35,0-2.13-.12-5.08-.35-2.95-.24-5.2-.35-6.73-.35s-3.78.12-6.73.35c-2.96.24-4.84.35-5.55.35-.24-.24-.35-.71-.35-1.3,0-1.18.12-1.77.24-1.77.59,0,1.66-.24,3.19-.71,1.42-.47,2.25-.95,2.48-1.42.35-1.53.59-3.78.59-6.85v-14.41c0-.35-.95-2.25-2.72-5.43-1.77-3.19-3.54-6.38-5.31-9.45l-2.6-4.49c-1.89-3.43-3.42-5.56-4.61-6.15-1.42-.82-2.96-1.29-4.49-1.29-.24,0-.35-.47-.35-1.42s.12-1.54.35-1.77c.94,0,2.24.12,3.78.24,1.54.12,3.07.12,4.37.24,1.06.24,2.36.24,3.67.24"></path></g><g><path class="cls-1" d="M420.46,61.48c-5.43,0-10.12-1.22-14.07-3.65-3.96-2.43-7.02-5.88-9.19-10.34-2.17-4.46-3.26-9.74-3.26-15.83s1.08-11.54,3.23-16.04c2.15-4.5,5.2-7.96,9.14-10.37,3.94-2.42,8.62-3.62,14.05-3.62s10.2,1.25,14.1,3.75c3.9,2.5,6.88,6.12,8.93,10.84,2.05,4.73,3.02,10.42,2.91,17.07h-6.3v-2.1c-.18-7.77-1.93-13.69-5.25-17.75-3.33-4.06-8.09-6.09-14.28-6.09s-11.35,2.11-14.83,6.33c-3.48,4.22-5.22,10.18-5.22,17.88s1.74,13.55,5.22,17.75,8.39,6.3,14.73,6.3c4.38,0,8.2-1.02,11.47-3.07,3.27-2.05,5.87-4.98,7.8-8.8l5.46,2.42c-2.28,4.9-5.57,8.68-9.87,11.34-4.3,2.66-9.22,3.99-14.75,3.99ZM398.1,33.28v-5.46h44.79v5.46h-44.79Z"></path><path class="cls-1" d="M456.33,59.9V3.19h5.51v12.76h.53v43.95h-6.04ZM490.09,59.9l.11-37.54c0-4.69-1.28-8.41-3.83-11.16-2.55-2.75-5.88-4.12-9.98-4.12s-7.54,1.43-10.13,4.28c-2.59,2.85-3.88,6.66-3.88,11.42l-4.2-2.1c0-3.68.84-6.94,2.52-9.79,1.68-2.85,3.98-5.1,6.91-6.75,2.92-1.65,6.27-2.47,10.05-2.47,3.4,0,6.49.72,9.29,2.15,2.8,1.44,5.04,3.6,6.72,6.48,1.68,2.89,2.52,6.5,2.52,10.84l-.11,38.75h-5.99ZM523.8,59.9l.11-38.12c0-4.59-1.3-8.18-3.91-10.79-2.61-2.61-5.85-3.91-9.74-3.91-2.21,0-4.38.51-6.54,1.52-2.15,1.02-3.95,2.66-5.38,4.94-1.44,2.28-2.15,5.36-2.15,9.24l-4.25-.68c-.14-4.13.62-7.73,2.28-10.79,1.66-3.06,3.97-5.43,6.93-7.11,2.96-1.68,6.33-2.52,10.11-2.52,5.57,0,10.07,1.72,13.52,5.15,3.45,3.43,5.17,8.12,5.17,14.07l-.11,39.02h-6.04Z"></path><path class="cls-1" d="M543.6,85.11V3.19h5.51v43.69h.53v38.23h-6.04ZM568.44,61.48c-5.11,0-9.43-1.33-12.97-3.99-3.54-2.66-6.23-6.25-8.09-10.76-1.86-4.52-2.78-9.61-2.78-15.28s.93-10.81,2.78-15.31c1.86-4.5,4.6-8.04,8.24-10.63,3.64-2.59,8.1-3.89,13.39-3.89s9.54,1.31,13.18,3.94,6.41,6.2,8.32,10.71c1.91,4.52,2.86,9.57,2.86,15.18s-.97,10.77-2.92,15.31c-1.94,4.53-4.76,8.12-8.45,10.76s-8.22,3.96-13.57,3.96ZM568.07,55.7c4.17,0,7.64-1.07,10.42-3.2,2.78-2.13,4.88-5.03,6.3-8.69,1.42-3.66,2.13-7.78,2.13-12.37s-.69-8.64-2.07-12.26c-1.38-3.62-3.47-6.49-6.25-8.61-2.78-2.12-6.33-3.18-10.63-3.18s-7.65,1.02-10.45,3.07-4.9,4.89-6.3,8.53c-1.4,3.64-2.1,7.79-2.1,12.44s.69,8.76,2.07,12.42c1.38,3.66,3.48,6.55,6.3,8.66,2.82,2.12,6.34,3.18,10.58,3.18Z"></path><path class="cls-1" d="M604.93,59.9V3.19h5.51v13.6l-1.37-1.79c.63-1.61,1.43-3.11,2.39-4.49.96-1.38,1.95-2.51,2.97-3.39,1.51-1.4,3.27-2.46,5.3-3.18,2.03-.72,4.08-1.14,6.14-1.26,2.07-.12,3.94.04,5.62.5v5.72c-2.24-.52-4.62-.63-7.14-.31-2.52.31-4.88,1.4-7.09,3.26-1.93,1.68-3.33,3.63-4.2,5.85-.88,2.22-1.44,4.55-1.68,6.98-.25,2.43-.37,4.8-.37,7.12v28.09h-6.09Z"></path><path class="cls-1" d="M663.79,61.48c-5.43,0-10.12-1.22-14.07-3.65-3.96-2.43-7.02-5.88-9.19-10.34s-3.26-9.74-3.26-15.83,1.08-11.54,3.23-16.04c2.15-4.5,5.2-7.96,9.14-10.37,3.94-2.42,8.62-3.62,14.05-3.62s10.2,1.25,14.1,3.75c3.9,2.5,6.88,6.12,8.93,10.84,2.05,4.73,3.02,10.42,2.91,17.07h-6.3v-2.1c-.17-7.77-1.93-13.69-5.25-17.75-3.33-4.06-8.09-6.09-14.28-6.09s-11.35,2.11-14.83,6.33c-3.48,4.22-5.22,10.18-5.22,17.88s1.74,13.55,5.22,17.75,8.39,6.3,14.73,6.3c4.38,0,8.2-1.02,11.47-3.07,3.27-2.05,5.87-4.98,7.8-8.8l5.46,2.42c-2.28,4.9-5.57,8.68-9.87,11.34-4.31,2.66-9.22,3.99-14.76,3.99ZM641.42,33.28v-5.46h44.79v5.46h-44.79Z"></path><path class="cls-1" d="M722.19,61.37c-6.55,0-11.95-1.38-16.2-4.15-4.25-2.76-6.89-6.62-7.9-11.55l6.2-1.05c.88,3.36,2.94,6.04,6.2,8.03,3.26,2,7.25,2.99,11.97,2.99s8.42-1,11.19-2.99c2.76-2,4.15-4.73,4.15-8.19,0-1.89-.43-3.44-1.29-4.65-.86-1.21-2.55-2.32-5.07-3.33-2.52-1.02-6.27-2.21-11.24-3.57-5.25-1.4-9.36-2.8-12.31-4.2-2.96-1.4-5.04-2.99-6.25-4.78-1.21-1.79-1.81-3.97-1.81-6.56,0-3.12.89-5.85,2.68-8.22,1.79-2.36,4.28-4.21,7.48-5.54,3.2-1.33,6.9-2,11.11-2s7.98.69,11.34,2.07c3.36,1.38,6.07,3.31,8.14,5.78,2.06,2.47,3.25,5.33,3.57,8.59l-6.2,1.16c-.6-3.64-2.43-6.52-5.51-8.64-3.08-2.12-6.93-3.19-11.55-3.23-4.38-.07-7.95.8-10.71,2.6-2.77,1.8-4.15,4.17-4.15,7.12,0,1.68.48,3.11,1.45,4.28.96,1.17,2.67,2.25,5.12,3.23,2.45.98,5.92,2.03,10.4,3.15,5.46,1.4,9.72,2.84,12.79,4.31,3.06,1.47,5.22,3.19,6.48,5.17,1.26,1.98,1.89,4.42,1.89,7.33,0,5.25-1.95,9.37-5.86,12.37-3.9,2.99-9.27,4.49-16.09,4.49Z"></path><path class="cls-1" d="M772.17,61.48c-4.38,0-8.01-.77-10.9-2.31-2.89-1.54-5.05-3.58-6.49-6.12-1.44-2.54-2.15-5.29-2.15-8.27,0-3.22.67-5.92,2.02-8.09,1.35-2.17,3.15-3.92,5.41-5.25,2.26-1.33,4.75-2.33,7.48-2.99,3.12-.7,6.48-1.3,10.08-1.81,3.61-.51,7.04-.95,10.32-1.34,3.27-.38,5.94-.72,8.01-1l-2.21,1.31c.14-6.13-1.01-10.69-3.44-13.68-2.43-2.99-6.71-4.49-12.84-4.49-4.31,0-7.85.97-10.63,2.91-2.78,1.94-4.73,4.94-5.85,9.01l-6.2-1.73c1.29-5.15,3.9-9.1,7.82-11.87,3.92-2.77,8.94-4.15,15.07-4.15,5.22,0,9.6,1.02,13.15,3.05s6.03,4.88,7.43,8.56c.59,1.51,1,3.26,1.21,5.28.21,2.01.31,4.04.31,6.06v35.34h-5.51v-14.91l2.05.52c-1.71,5.11-4.71,9.05-8.98,11.81-4.27,2.76-9.33,4.15-15.18,4.15ZM772.49,55.91c3.85,0,7.23-.69,10.13-2.07,2.91-1.38,5.26-3.33,7.06-5.83,1.8-2.5,2.95-5.45,3.44-8.85.35-1.89.54-3.94.58-6.14.03-2.21.05-3.83.05-4.88l2.62,1.68c-2.28.28-5,.58-8.17.89-3.17.31-6.4.7-9.69,1.15-3.29.46-6.27,1.03-8.93,1.73-1.65.46-3.3,1.11-4.96,1.97-1.66.86-3.05,2.04-4.15,3.54-1.1,1.51-1.65,3.41-1.65,5.72,0,1.72.43,3.43,1.29,5.15.86,1.72,2.28,3.13,4.28,4.25,2,1.12,4.69,1.68,8.09,1.68Z"></path><path class="cls-1" d="M834.4,61.37c-6.55,0-11.95-1.38-16.2-4.15-4.25-2.76-6.89-6.62-7.9-11.55l6.2-1.05c.88,3.36,2.94,6.04,6.2,8.03,3.26,2,7.25,2.99,11.97,2.99s8.42-1,11.18-2.99c2.76-2,4.15-4.73,4.15-8.19,0-1.89-.43-3.44-1.29-4.65-.86-1.21-2.55-2.32-5.07-3.33-2.52-1.02-6.27-2.21-11.24-3.57-5.25-1.4-9.36-2.8-12.31-4.2-2.96-1.4-5.04-2.99-6.25-4.78-1.21-1.79-1.81-3.97-1.81-6.56,0-3.12.89-5.85,2.68-8.22,1.79-2.36,4.28-4.21,7.48-5.54,3.2-1.33,6.9-2,11.11-2s7.98.69,11.34,2.07c3.36,1.38,6.07,3.31,8.14,5.78,2.06,2.47,3.25,5.33,3.57,8.59l-6.2,1.16c-.6-3.64-2.43-6.52-5.51-8.64-3.08-2.12-6.93-3.19-11.55-3.23-4.38-.07-7.95.8-10.71,2.6-2.77,1.8-4.15,4.17-4.15,7.12,0,1.68.48,3.11,1.44,4.28.96,1.17,2.67,2.25,5.12,3.23,2.45.98,5.92,2.03,10.4,3.15,5.46,1.4,9.72,2.84,12.79,4.31,3.06,1.47,5.22,3.19,6.48,5.17,1.26,1.98,1.89,4.42,1.89,7.33,0,5.25-1.95,9.37-5.85,12.37-3.9,2.99-9.27,4.49-16.09,4.49Z"></path></g></svg>